<?xml version="1.0" encoding="UTF-8" standalone="no"?><svg xmlns="http://www.w3.org/2000/svg" xmlns:xlink="http://www.w3.org/1999/xlink" contentStyleType="text/css" height="1138.5417px" preserveAspectRatio="none" style="width:2232px;height:1138px;background:#00000000;" version="1.1" viewBox="0 0 2232 1138" width="2232.2917px" zoomAndPan="magnify"><defs/><g><!--MD5=[fe42295f3ee7b567e40d3cbf14d4bd73]
cluster model.rs--><g id="cluster_model.rs"><path d="M419.7708,143.75 L532.2708,143.75 A6.25,6.25 0 0 1 536.4375,147.9167 L543.7292,184.668 L1220.9167,184.668 A4.1667,4.1667 0 0 1 1225.0833,188.8346 L1225.0833,358.3333 A4.1667,4.1667 0 0 1 1220.9167,362.5 L419.7708,362.5 A4.1667,4.1667 0 0 1 415.6042,358.3333 L415.6042,147.9167 A4.1667,4.1667 0 0 1 419.7708,143.75 " fill="#FFFFFF" style="stroke:#78C2AD;stroke-width:2.0833333333333335;"/><line style="stroke:#78C2AD;stroke-width:2.0833333333333335;" x1="415.6042" x2="543.7292" y1="184.668" y2="184.668"/><text fill="#6CAF9C" font-family="&quot;Verdana&quot;" font-size="20.8333" font-weight="bold" lengthAdjust="spacing" textLength="104.1667" x="424.9792" y="170.3796">model.rs</text></g><!--MD5=[88e0fa2924c1914b60da3a9eddcc886b]
cluster mixture.rs--><g id="cluster_mixture.rs"><path d="M889.7917,537.5 L1022.0833,537.5 A6.25,6.25 0 0 1 1026.25,541.6667 L1033.5417,578.418 L1865.0208,578.418 A4.1667,4.1667 0 0 1 1869.1875,582.5846 L1869.1875,916.6667 A4.1667,4.1667 0 0 1 1865.0208,920.8333 L889.7917,920.8333 A4.1667,4.1667 0 0 1 885.625,916.6667 L885.625,541.6667 A4.1667,4.1667 0 0 1 889.7917,537.5 " fill="#FFFFFF" style="stroke:#78C2AD;stroke-width:2.0833333333333335;"/><line style="stroke:#78C2AD;stroke-width:2.0833333333333335;" x1="885.625" x2="1033.5417" y1="578.418" y2="578.418"/><text fill="#6CAF9C" font-family="&quot;Verdana&quot;" font-size="20.8333" font-weight="bold" lengthAdjust="spacing" textLength="123.9583" x="895" y="564.1296">mixture.rs</text></g><!--MD5=[1fa37e0c8a21f5c79a2e2fb0741c6528]
cluster backends.[ndarray|ractor|rust|trch-rs|polars].*.rs--><g id="cluster_backends.[ndarray|ractor|rust|trch-rs|polars].*.rs"><path d="M20.8333,955.2083 L613.5417,955.2083 A6.25,6.25 0 0 1 617.7083,959.375 L625,996.1263 L2216.0833,996.1263 A4.1667,4.1667 0 0 1 2220.25,1000.293 L2220.25,1121.875 A4.1667,4.1667 0 0 1 2216.0833,1126.0417 L20.8333,1126.0417 A4.1667,4.1667 0 0 1 16.6667,1121.875 L16.6667,959.375 A4.1667,4.1667 0 0 1 20.8333,955.2083 " fill="#FFFFFF" style="stroke:#78C2AD;stroke-width:2.0833333333333335;"/><line style="stroke:#78C2AD;stroke-width:2.0833333333333335;" x1="16.6667" x2="625" y1="996.1263" y2="996.1263"/><text fill="#6CAF9C" font-family="&quot;Verdana&quot;" font-size="20.8333" font-weight="bold" lengthAdjust="spacing" textLength="584.375" x="26.0417" y="981.838">backends.[ndarray|ractor|rust|trch-rs|polars].*.rs</text></g><!--MD5=[7e20e022571e30ec1001cf6eabd7f3e2]
class Model--><g id="elem_Model"><rect codeLine="11" fill="#86C8B5" height="76.6764" id="Model" rx="4.1667" ry="4.1667" style="stroke:#78C2AD;stroke-width:1.0416666666666667;" width="225" x="669.7396" y="233.3333"/><ellipse cx="755.6771" cy="255.6274" fill="#B0C4DE" rx="10.4167" ry="10.4167" style="stroke:#6CAF9C;stroke-width:1.0416666666666667;"/><path d="M755.4655,260.4451 Q754.7982,260.4451 754.1309,260.3149 Q753.4798,260.1847 752.9102,259.908 L752.9102,258.2479 Q753.61,258.606 754.2611,258.785 Q754.9121,258.9478 755.5143,258.9478 Q756.1654,258.9478 756.5723,258.7362 Q756.9954,258.5083 756.9954,257.9224 Q756.9954,257.5317 756.7676,257.3039 Q756.556,257.076 756.1328,256.8807 Q755.7259,256.6691 755.1563,256.3599 Q754.5866,256.0506 754.0983,255.6925 Q753.6263,255.3345 753.3496,254.8462 Q753.0892,254.3416 753.0892,253.6418 Q753.0892,252.4373 753.8867,251.8514 Q754.7005,251.2655 756.0026,251.2655 Q756.5234,251.2655 757.2559,251.3957 Q757.9883,251.5096 758.6882,251.8351 L758.1022,253.2511 Q757.5,252.9907 756.9954,252.8768 Q756.4909,252.7629 756.1003,252.7629 Q755.498,252.7629 755.2051,253.0233 Q754.9284,253.2674 754.9284,253.7231 Q754.9284,254.0975 755.1074,254.3254 Q755.2865,254.5369 755.6283,254.716 Q755.9863,254.895 756.5234,255.1717 Q757.2559,255.5461 757.7767,255.8879 Q758.2975,256.2297 758.5742,256.6854 Q758.8509,257.1248 758.8509,257.8247 Q758.8509,258.6873 758.4277,259.2733 Q758.0046,259.8592 757.2396,260.1522 Q756.4746,260.4451 755.4655,260.4451 Z " fill="#FFFFFF"/><text fill="#343A40" font-family="&quot;Verdana&quot;" font-size="11.4583" lengthAdjust="spacing" textLength="34.375" x="780.6771" y="264.8026">Model</text><line style="stroke:#78C2AD;stroke-width:1.0416666666666667;" x1="670.7813" x2="893.6979" y1="277.9215" y2="277.9215"/><ellipse cx="681.1979" cy="295.5282" fill="none" rx="3.125" ry="3.125" style="stroke:#6CAF9C;stroke-width:1.0416666666666667;"/><text fill="#343A40" font-family="&quot;Verdana&quot;" font-size="11.4583" lengthAdjust="spacing" textLength="188.5417" x="694.7396" y="297.9324">Parametrizable parameterizable</text></g><!--MD5=[b7d67afb87b9502b9f4ca007d564442b]
class ModelInfo--><g id="elem_ModelInfo"><rect codeLine="16" fill="#86C8B5" height="44.5882" id="ModelInfo" rx="4.1667" ry="4.1667" style="stroke:#78C2AD;stroke-width:1.0416666666666667;" width="97.9167" x="458.2813" y="249.4792"/><ellipse cx="472.8646" cy="271.7733" fill="#B0C4DE" rx="10.4167" ry="10.4167" style="stroke:#6CAF9C;stroke-width:1.0416666666666667;"/><path d="M472.653,276.591 Q471.9857,276.591 471.3184,276.4608 Q470.6673,276.3306 470.0977,276.0539 L470.0977,274.3937 Q470.7975,274.7518 471.4486,274.9308 Q472.0996,275.0936 472.7018,275.0936 Q473.3529,275.0936 473.7598,274.882 Q474.1829,274.6541 474.1829,274.0682 Q474.1829,273.6776 473.9551,273.4497 Q473.7435,273.2218 473.3203,273.0265 Q472.9134,272.8149 472.3438,272.5057 Q471.7741,272.1965 471.2858,271.8384 Q470.8138,271.4803 470.5371,270.992 Q470.2767,270.4875 470.2767,269.7876 Q470.2767,268.5832 471.0742,267.9972 Q471.888,267.4113 473.1901,267.4113 Q473.7109,267.4113 474.4434,267.5415 Q475.1758,267.6554 475.8757,267.981 L475.2897,269.397 Q474.6875,269.1366 474.1829,269.0226 Q473.6784,268.9087 473.2878,268.9087 Q472.6855,268.9087 472.3926,269.1691 Q472.1159,269.4132 472.1159,269.869 Q472.1159,270.2433 472.2949,270.4712 Q472.474,270.6828 472.8158,270.8618 Q473.1738,271.0409 473.7109,271.3175 Q474.4434,271.6919 474.9642,272.0337 Q475.485,272.3755 475.7617,272.8312 Q476.0384,273.2707 476.0384,273.9705 Q476.0384,274.8332 475.6152,275.4191 Q475.1921,276.005 474.4271,276.298 Q473.6621,276.591 472.653,276.591 Z " fill="#FFFFFF"/><text fill="#343A40" font-family="&quot;Verdana&quot;" font-size="11.4583" lengthAdjust="spacing" textLength="56.25" x="491.6146" y="280.9484">ModelInfo</text></g><!--MD5=[daad9553d4cfc7a3356ebdfcccdbb1e3]
class Intermediate--><g id="elem_Intermediate"><rect codeLine="20" fill="#86C8B5" height="147.9411" id="Intermediate" rx="4.1667" ry="4.1667" style="stroke:#78C2AD;stroke-width:1.0416666666666667;" width="151.0417" x="1020.2604" y="197.9167"/><ellipse cx="1050.3125" cy="220.2108" fill="#B0C4DE" rx="10.4167" ry="10.4167" style="stroke:#6CAF9C;stroke-width:1.0416666666666667;"/><path d="M1050.1009,225.0285 Q1049.4336,225.0285 1048.7663,224.8983 Q1048.1152,224.7681 1047.5456,224.4914 L1047.5456,222.8312 Q1048.2454,223.1893 1048.8965,223.3683 Q1049.5475,223.5311 1050.1497,223.5311 Q1050.8008,223.5311 1051.2077,223.3195 Q1051.6309,223.0916 1051.6309,222.5057 Q1051.6309,222.1151 1051.403,221.8872 Q1051.1914,221.6593 1050.7682,221.464 Q1050.3613,221.2524 1049.7917,220.9432 Q1049.222,220.634 1048.7337,220.2759 Q1048.2617,219.9178 1047.985,219.4295 Q1047.7246,218.925 1047.7246,218.2251 Q1047.7246,217.0207 1048.5221,216.4347 Q1049.3359,215.8488 1050.638,215.8488 Q1051.1589,215.8488 1051.8913,215.979 Q1052.6237,216.0929 1053.3236,216.4185 L1052.7376,217.8345 Q1052.1354,217.5741 1051.6309,217.4601 Q1051.1263,217.3462 1050.7357,217.3462 Q1050.1335,217.3462 1049.8405,217.6066 Q1049.5638,217.8507 1049.5638,218.3065 Q1049.5638,218.6808 1049.7428,218.9087 Q1049.9219,219.1203 1050.2637,219.2993 Q1050.6217,219.4784 1051.1589,219.755 Q1051.8913,220.1294 1052.4121,220.4712 Q1052.9329,220.813 1053.2096,221.2687 Q1053.4863,221.7082 1053.4863,222.408 Q1053.4863,223.2707 1053.0632,223.8566 Q1052.64,224.4425 1051.875,224.7355 Q1051.11,225.0285 1050.1009,225.0285 Z " fill="#FFFFFF"/><text fill="#343A40" font-family="&quot;Verdana&quot;" font-size="11.4583" lengthAdjust="spacing" textLength="75" x="1072.5" y="229.3859">Intermediate</text><line style="stroke:#78C2AD;stroke-width:1.0416666666666667;" x1="1021.3021" x2="1170.2604" y1="242.5049" y2="242.5049"/><ellipse cx="1031.7188" cy="260.1115" fill="none" rx="3.125" ry="3.125" style="stroke:#6CAF9C;stroke-width:1.0416666666666667;"/><text fill="#343A40" font-family="&quot;Verdana&quot;" font-size="11.4583" lengthAdjust="spacing" textLength="114.5833" x="1045.2604" y="262.5158">sufficient_statistics</text><ellipse cx="1031.7188" cy="283.8664" fill="none" rx="3.125" ry="3.125" style="stroke:#6CAF9C;stroke-width:1.0416666666666667;"/><text fill="#343A40" font-family="&quot;Verdana&quot;" font-size="11.4583" lengthAdjust="spacing" textLength="90.625" x="1045.2604" y="286.2707">bool converged</text><ellipse cx="1031.7188" cy="307.6213" fill="none" rx="3.125" ry="3.125" style="stroke:#6CAF9C;stroke-width:1.0416666666666667;"/><text fill="#343A40" font-family="&quot;Verdana&quot;" font-size="11.4583" lengthAdjust="spacing" textLength="104.1667" x="1045.2604" y="310.0255">usize n_iterations</text><ellipse cx="1031.7188" cy="331.3761" fill="none" rx="3.125" ry="3.125" style="stroke:#6CAF9C;stroke-width:1.0416666666666667;"/><text fill="#343A40" font-family="&quot;Verdana&quot;" font-size="11.4583" lengthAdjust="spacing" textLength="109.375" x="1045.2604" y="333.7804">AvgLLH: likelihood,</text></g><!--MD5=[3348e0aa2bf19271afc652937df47c93]
class Mixable--><g id="elem_Mixable"><rect codeLine="46" fill="#86C8B5" height="100.4313" id="Mixable" rx="4.1667" ry="4.1667" style="stroke:#78C2AD;stroke-width:1.0416666666666667;" width="207.2917" x="1140.0521" y="804.1667"/><ellipse cx="1211.9271" cy="826.4608" fill="#D8BFD8" rx="10.4167" ry="10.4167" style="stroke:#6CAF9C;stroke-width:1.0416666666666667;"/><path d="M1211.1133,831.6691 L1211.1133,824.3123 L1208.6556,824.3123 L1208.6556,822.7498 L1215.4102,822.7498 L1215.4102,824.3123 L1212.9362,824.3123 L1212.9362,831.6691 L1211.1133,831.6691 Z " fill="#FFFFFF"/><text fill="#343A40" font-family="&quot;Verdana&quot;" font-size="11.4583" font-style="italic" lengthAdjust="spacing" textLength="44.7917" x="1236.9271" y="835.6359">Mixable</text><line style="stroke:#78C2AD;stroke-width:1.0416666666666667;" x1="1141.0938" x2="1346.3021" y1="848.7549" y2="848.7549"/><ellipse cx="1151.5104" cy="866.3615" fill="none" rx="3.125" ry="3.125" style="stroke:#6CAF9C;stroke-width:1.0416666666666667;"/><text fill="#343A40" font-family="&quot;Verdana&quot;" font-size="11.4583" font-style="italic" lengthAdjust="spacing" textLength="120.8333" x="1165.0521" y="868.7658">precit(weights, data)</text><ellipse cx="1151.5104" cy="890.1164" fill="none" rx="3.125" ry="3.125" style="stroke:#6CAF9C;stroke-width:1.0416666666666667;"/><text fill="#343A40" font-family="&quot;Verdana&quot;" font-size="11.4583" font-style="italic" lengthAdjust="spacing" textLength="170.8333" x="1165.0521" y="892.5207">expect(data) ➙ LogLikelihood</text></g><!--MD5=[6a23bd29236b76addf46cc9c50b43ae4]
class Mixture--><g id="elem_Mixture"><rect codeLine="50" fill="#86C8B5" height="124.1862" id="Mixture" rx="4.1667" ry="4.1667" style="stroke:#78C2AD;stroke-width:1.0416666666666667;" width="94.7917" x="997.3438" y="591.1458"/><ellipse cx="1016.6146" cy="613.4399" fill="#B0C4DE" rx="10.4167" ry="10.4167" style="stroke:#6CAF9C;stroke-width:1.0416666666666667;"/><path d="M1016.403,618.2576 Q1015.7357,618.2576 1015.0684,618.1274 Q1014.4173,617.9972 1013.8477,617.7205 L1013.8477,616.0604 Q1014.5475,616.4185 1015.1986,616.5975 Q1015.8496,616.7603 1016.4518,616.7603 Q1017.1029,616.7603 1017.5098,616.5487 Q1017.9329,616.3208 1017.9329,615.7349 Q1017.9329,615.3442 1017.7051,615.1164 Q1017.4935,614.8885 1017.0703,614.6932 Q1016.6634,614.4816 1016.0938,614.1724 Q1015.5241,613.8631 1015.0358,613.505 Q1014.5638,613.147 1014.2871,612.6587 Q1014.0267,612.1541 1014.0267,611.4543 Q1014.0267,610.2498 1014.8242,609.6639 Q1015.638,609.078 1016.9401,609.078 Q1017.4609,609.078 1018.1934,609.2082 Q1018.9258,609.3221 1019.6257,609.6476 L1019.0397,611.0636 Q1018.4375,610.8032 1017.9329,610.6893 Q1017.4284,610.5754 1017.0378,610.5754 Q1016.4355,610.5754 1016.1426,610.8358 Q1015.8659,611.0799 1015.8659,611.5356 Q1015.8659,611.91 1016.0449,612.1379 Q1016.224,612.3494 1016.5658,612.5285 Q1016.9238,612.7075 1017.4609,612.9842 Q1018.1934,613.3586 1018.7142,613.7004 Q1019.235,614.0422 1019.5117,614.4979 Q1019.7884,614.9373 1019.7884,615.6372 Q1019.7884,616.4998 1019.3652,617.0858 Q1018.9421,617.6717 1018.1771,617.9647 Q1017.4121,618.2576 1016.403,618.2576 Z " fill="#FFFFFF"/><text fill="#343A40" font-family="&quot;Verdana&quot;" font-size="11.4583" lengthAdjust="spacing" textLength="42.7083" x="1036.4063" y="622.6151">Mixture</text><line style="stroke:#78C2AD;stroke-width:1.0416666666666667;" x1="998.3854" x2="1091.0938" y1="635.734" y2="635.734"/><ellipse cx="1008.8021" cy="653.3407" fill="none" rx="3.125" ry="3.125" style="stroke:#6CAF9C;stroke-width:1.0416666666666667;"/><text fill="#343A40" font-family="&quot;Verdana&quot;" font-size="11.4583" lengthAdjust="spacing" textLength="33.3333" x="1022.3438" y="655.7449">latent</text><ellipse cx="1008.8021" cy="677.0955" fill="none" rx="3.125" ry="3.125" style="stroke:#6CAF9C;stroke-width:1.0416666666666667;"/><text fill="#343A40" font-family="&quot;Verdana&quot;" font-size="11.4583" lengthAdjust="spacing" textLength="45.8333" x="1022.3438" y="679.4998">mixable</text><ellipse cx="1008.8021" cy="700.8504" fill="none" rx="3.125" ry="3.125" style="stroke:#6CAF9C;stroke-width:1.0416666666666667;"/><text fill="#343A40" font-family="&quot;Verdana&quot;" font-size="11.4583" lengthAdjust="spacing" textLength="58.3333" x="1022.3438" y="703.2547">predicting</text></g><!--MD5=[9e21543edd674278c3d2a8c9b560e370]
class Latent--><g id="elem_Latent"><rect codeLine="56" fill="#86C8B5" height="76.6764" id="Latent" rx="4.1667" ry="4.1667" style="stroke:#78C2AD;stroke-width:1.0416666666666667;" width="291.6667" x="1496.8229" y="815.625"/><ellipse cx="1615.0521" cy="837.9191" fill="#D8BFD8" rx="10.4167" ry="10.4167" style="stroke:#6CAF9C;stroke-width:1.0416666666666667;"/><path d="M1614.2383,843.1274 L1614.2383,835.7707 L1611.7806,835.7707 L1611.7806,834.2082 L1618.5352,834.2082 L1618.5352,835.7707 L1616.0612,835.7707 L1616.0612,843.1274 L1614.2383,843.1274 Z " fill="#FFFFFF"/><text fill="#343A40" font-family="&quot;Verdana&quot;" font-size="11.4583" font-style="italic" lengthAdjust="spacing" textLength="36.4583" x="1640.0521" y="847.0942">Latent</text><line style="stroke:#78C2AD;stroke-width:1.0416666666666667;" x1="1497.8646" x2="1787.4479" y1="860.2132" y2="860.2132"/><ellipse cx="1508.2813" cy="877.8198" fill="none" rx="3.125" ry="3.125" style="stroke:#6CAF9C;stroke-width:1.0416666666666667;"/><text fill="#343A40" font-family="&quot;Verdana&quot;" font-size="11.4583" font-style="italic" lengthAdjust="spacing" textLength="255.2083" x="1521.8229" y="880.2241">expect(log_likelihood) ➙ Likelihood, AvgLLH</text></g><!--MD5=[ba15d5a40c377768d1348d53e8dc7994]
class Predicting--><g id="elem_Predicting"><rect fill="#86C8B5" height="34.1715" id="Predicting" rx="4.1667" ry="4.1667" style="stroke:#78C2AD;stroke-width:1.0416666666666667;" width="100" x="928.0729" y="836.9792"/><ellipse cx="942.6563" cy="854.0649" fill="none" rx="10.4167" ry="10.4167" style="stroke:#6CAF9C;stroke-width:1.0416666666666667;"/><path d="M942.3633,858.8826 Q941.0612,858.8826 940.2311,858.3455 Q939.401,857.7922 938.9941,856.7993 Q938.5872,855.8065 938.5872,854.4718 Q938.5872,852.9907 939.0755,851.9328 Q939.5638,850.8586 940.5078,850.2889 Q941.4518,849.703 942.819,849.703 Q943.4701,849.703 943.9583,849.8332 Q944.4629,849.9634 944.9674,850.2075 L944.3652,851.7049 Q943.9095,851.4608 943.5026,851.3794 Q943.112,851.298 942.7539,851.298 Q941.8913,851.298 941.3704,851.6886 Q940.8659,852.063 940.638,852.7629 Q940.4264,853.4627 940.4264,854.4067 Q940.4264,855.8716 940.9473,856.5877 Q941.4844,857.2876 942.6563,857.2876 Q943.0957,857.2876 943.5514,857.1737 Q944.0072,857.0597 944.6257,856.783 L944.6257,858.4106 Q944.0885,858.6548 943.5026,858.7687 Q942.9167,858.8826 942.3633,858.8826 Z " fill="#FFFFFF"/><text fill="#343A40" font-family="&quot;Verdana&quot;" font-size="11.4583" lengthAdjust="spacing" textLength="58.3333" x="961.4063" y="858.0317">Predicting</text></g><!--MD5=[239e4ce6a1adaec6b94882a473267c2f]
class Gaussian--><g id="elem_Gaussian"><rect codeLine="69" fill="#86C8B5" height="100.4313" id="Gaussian" rx="4.1667" ry="4.1667" style="stroke:#78C2AD;stroke-width:1.0416666666666667;" width="150" x="898.9063" y="1009.375"/><ellipse cx="936.9271" cy="1031.6691" fill="#B0C4DE" rx="10.4167" ry="10.4167" style="stroke:#6CAF9C;stroke-width:1.0416666666666667;"/><path d="M936.7155,1036.4868 Q936.0482,1036.4868 935.3809,1036.3566 Q934.7298,1036.2264 934.1602,1035.9497 L934.1602,1034.2896 Q934.86,1034.6476 935.5111,1034.8267 Q936.1621,1034.9894 936.7643,1034.9894 Q937.4154,1034.9894 937.8223,1034.7778 Q938.2454,1034.55 938.2454,1033.964 Q938.2454,1033.5734 938.0176,1033.3455 Q937.806,1033.1177 937.3828,1032.9224 Q936.9759,1032.7108 936.4063,1032.4015 Q935.8366,1032.0923 935.3483,1031.7342 Q934.8763,1031.3761 934.5996,1030.8879 Q934.3392,1030.3833 934.3392,1029.6834 Q934.3392,1028.479 935.1367,1027.8931 Q935.9505,1027.3071 937.2526,1027.3071 Q937.7734,1027.3071 938.5059,1027.4373 Q939.2383,1027.5513 939.9382,1027.8768 L939.3522,1029.2928 Q938.75,1029.0324 938.2454,1028.9185 Q937.7409,1028.8045 937.3503,1028.8045 Q936.748,1028.8045 936.4551,1029.0649 Q936.1784,1029.3091 936.1784,1029.7648 Q936.1784,1030.1392 936.3574,1030.367 Q936.5365,1030.5786 936.8783,1030.7576 Q937.2363,1030.9367 937.7734,1031.2134 Q938.5059,1031.5877 939.0267,1031.9295 Q939.5475,1032.2713 939.8242,1032.7271 Q940.1009,1033.1665 940.1009,1033.8664 Q940.1009,1034.729 939.6777,1035.3149 Q939.2546,1035.9009 938.4896,1036.1938 Q937.7246,1036.4868 936.7155,1036.4868 Z " fill="#FFFFFF"/><text fill="#343A40" font-family="&quot;Verdana&quot;" font-size="11.4583" lengthAdjust="spacing" textLength="56.25" x="960.8854" y="1040.8442">Gaussian</text><line style="stroke:#78C2AD;stroke-width:1.0416666666666667;" x1="899.9479" x2="1047.8646" y1="1053.9632" y2="1053.9632"/><ellipse cx="910.3646" cy="1071.5698" fill="none" rx="3.125" ry="3.125" style="stroke:#6CAF9C;stroke-width:1.0416666666666667;"/><text fill="#343A40" font-family="&quot;Verdana&quot;" font-size="11.4583" lengthAdjust="spacing" textLength="83.3333" x="923.9063" y="1073.9741">Array2 means</text><ellipse cx="910.3646" cy="1095.3247" fill="none" rx="3.125" ry="3.125" style="stroke:#6CAF9C;stroke-width:1.0416666666666667;"/><text fill="#343A40" font-family="&quot;Verdana&quot;" font-size="11.4583" lengthAdjust="spacing" textLength="113.5417" x="923.9063" y="1097.729">Array3 covariances</text></g><!--MD5=[c52464c63445bf6ad3a4975723e7c11f]
class GaussianRegression--><g id="elem_GaussianRegression"><rect codeLine="73" fill="#86C8B5" height="100.4313" id="GaussianRegression" rx="4.1667" ry="4.1667" style="stroke:#0000FF;stroke-width:1.0416666666666667;stroke-dasharray:1.0,3.0;" width="164.5833" x="1161.4063" y="1009.375"/><ellipse cx="1175.9896" cy="1031.6691" fill="#B0C4DE" rx="10.4167" ry="10.4167" style="stroke:#6CAF9C;stroke-width:1.0416666666666667;"/><path d="M1175.778,1036.4868 Q1175.1107,1036.4868 1174.4434,1036.3566 Q1173.7923,1036.2264 1173.2227,1035.9497 L1173.2227,1034.2896 Q1173.9225,1034.6476 1174.5736,1034.8267 Q1175.2246,1034.9894 1175.8268,1034.9894 Q1176.4779,1034.9894 1176.8848,1034.7778 Q1177.3079,1034.55 1177.3079,1033.964 Q1177.3079,1033.5734 1177.0801,1033.3455 Q1176.8685,1033.1177 1176.4453,1032.9224 Q1176.0384,1032.7108 1175.4688,1032.4015 Q1174.8991,1032.0923 1174.4108,1031.7342 Q1173.9388,1031.3761 1173.6621,1030.8879 Q1173.4017,1030.3833 1173.4017,1029.6834 Q1173.4017,1028.479 1174.1992,1027.8931 Q1175.013,1027.3071 1176.3151,1027.3071 Q1176.8359,1027.3071 1177.5684,1027.4373 Q1178.3008,1027.5513 1179.0007,1027.8768 L1178.4147,1029.2928 Q1177.8125,1029.0324 1177.3079,1028.9185 Q1176.8034,1028.8045 1176.4128,1028.8045 Q1175.8105,1028.8045 1175.5176,1029.0649 Q1175.2409,1029.3091 1175.2409,1029.7648 Q1175.2409,1030.1392 1175.4199,1030.367 Q1175.599,1030.5786 1175.9408,1030.7576 Q1176.2988,1030.9367 1176.8359,1031.2134 Q1177.5684,1031.5877 1178.0892,1031.9295 Q1178.61,1032.2713 1178.8867,1032.7271 Q1179.1634,1033.1665 1179.1634,1033.8664 Q1179.1634,1034.729 1178.7402,1035.3149 Q1178.3171,1035.9009 1177.5521,1036.1938 Q1176.7871,1036.4868 1175.778,1036.4868 Z " fill="#FFFFFF"/><text fill="#343A40" font-family="&quot;Verdana&quot;" font-size="11.4583" lengthAdjust="spacing" textLength="122.9167" x="1194.7396" y="1040.8442">GaussianRegression</text><line style="stroke:#0000FF;stroke-width:1.0416666666666667;stroke-dasharray:1.0,3.0;" x1="1162.4479" x2="1324.9479" y1="1053.9632" y2="1053.9632"/><ellipse cx="1172.8646" cy="1071.5698" fill="none" rx="3.125" ry="3.125" style="stroke:#6CAF9C;stroke-width:1.0416666666666667;"/><text fill="#343A40" font-family="&quot;Verdana&quot;" font-size="11.4583" lengthAdjust="spacing" textLength="83.3333" x="1186.4063" y="1073.9741">Array2 means</text><ellipse cx="1172.8646" cy="1095.3247" fill="none" rx="3.125" ry="3.125" style="stroke:#6CAF9C;stroke-width:1.0416666666666667;"/><text fill="#343A40" font-family="&quot;Verdana&quot;" font-size="11.4583" lengthAdjust="spacing" textLength="113.5417" x="1186.4063" y="1097.729">Array3 covariances</text></g><!--MD5=[46a96c2616848b25b7ede2cfd3556abf]
class Structured--><g id="elem_Structured"><rect codeLine="77" fill="#86C8B5" height="100.4313" id="Structured" rx="4.1667" ry="4.1667" style="stroke:#0000FF;stroke-width:1.0416666666666667;stroke-dasharray:1.0,3.0;" width="150" x="1438.4896" y="1009.375"/><ellipse cx="1473.6979" cy="1031.6691" fill="#B0C4DE" rx="10.4167" ry="10.4167" style="stroke:#6CAF9C;stroke-width:1.0416666666666667;"/><path d="M1473.4863,1036.4868 Q1472.819,1036.4868 1472.1517,1036.3566 Q1471.5007,1036.2264 1470.931,1035.9497 L1470.931,1034.2896 Q1471.6309,1034.6476 1472.2819,1034.8267 Q1472.9329,1034.9894 1473.5352,1034.9894 Q1474.1862,1034.9894 1474.5931,1034.7778 Q1475.0163,1034.55 1475.0163,1033.964 Q1475.0163,1033.5734 1474.7884,1033.3455 Q1474.5768,1033.1177 1474.1536,1032.9224 Q1473.7467,1032.7108 1473.1771,1032.4015 Q1472.6074,1032.0923 1472.1191,1031.7342 Q1471.6471,1031.3761 1471.3704,1030.8879 Q1471.11,1030.3833 1471.11,1029.6834 Q1471.11,1028.479 1471.9076,1027.8931 Q1472.7214,1027.3071 1474.0234,1027.3071 Q1474.5443,1027.3071 1475.2767,1027.4373 Q1476.0091,1027.5513 1476.709,1027.8768 L1476.123,1029.2928 Q1475.5208,1029.0324 1475.0163,1028.9185 Q1474.5117,1028.8045 1474.1211,1028.8045 Q1473.5189,1028.8045 1473.2259,1029.0649 Q1472.9492,1029.3091 1472.9492,1029.7648 Q1472.9492,1030.1392 1473.1283,1030.367 Q1473.3073,1030.5786 1473.6491,1030.7576 Q1474.0072,1030.9367 1474.5443,1031.2134 Q1475.2767,1031.5877 1475.7975,1031.9295 Q1476.3184,1032.2713 1476.5951,1032.7271 Q1476.8717,1033.1665 1476.8717,1033.8664 Q1476.8717,1034.729 1476.4486,1035.3149 Q1476.0254,1035.9009 1475.2604,1036.1938 Q1474.4954,1036.4868 1473.4863,1036.4868 Z " fill="#FFFFFF"/><text fill="#343A40" font-family="&quot;Verdana&quot;" font-size="11.4583" lengthAdjust="spacing" textLength="62.5" x="1497.0313" y="1040.8442">Structured</text><line style="stroke:#0000FF;stroke-width:1.0416666666666667;stroke-dasharray:1.0,3.0;" x1="1439.5313" x2="1587.4479" y1="1053.9632" y2="1053.9632"/><ellipse cx="1449.9479" cy="1071.5698" fill="none" rx="3.125" ry="3.125" style="stroke:#6CAF9C;stroke-width:1.0416666666666667;"/><text fill="#343A40" font-family="&quot;Verdana&quot;" font-size="11.4583" lengthAdjust="spacing" textLength="83.3333" x="1463.4896" y="1073.9741">Array2 means</text><ellipse cx="1449.9479" cy="1095.3247" fill="none" rx="3.125" ry="3.125" style="stroke:#6CAF9C;stroke-width:1.0416666666666667;"/><text fill="#343A40" font-family="&quot;Verdana&quot;" font-size="11.4583" lengthAdjust="spacing" textLength="113.5417" x="1463.4896" y="1097.729">Array3 covariances</text></g><!--MD5=[560cc764ef838ba0eaca256acadcbb03]
class VanMises--><g id="elem_VanMises"><rect codeLine="81" fill="#86C8B5" height="100.4313" id="VanMises" rx="4.1667" ry="4.1667" style="stroke:#0000FF;stroke-width:1.0416666666666667;stroke-dasharray:1.0,3.0;" width="150" x="69.7396" y="1009.375"/><ellipse cx="107.7604" cy="1031.6691" fill="#B0C4DE" rx="10.4167" ry="10.4167" style="stroke:#6CAF9C;stroke-width:1.0416666666666667;"/><path d="M107.5488,1036.4868 Q106.8815,1036.4868 106.2142,1036.3566 Q105.5632,1036.2264 104.9935,1035.9497 L104.9935,1034.2896 Q105.6934,1034.6476 106.3444,1034.8267 Q106.9954,1034.9894 107.5977,1034.9894 Q108.2487,1034.9894 108.6556,1034.7778 Q109.0788,1034.55 109.0788,1033.964 Q109.0788,1033.5734 108.8509,1033.3455 Q108.6393,1033.1177 108.2161,1032.9224 Q107.8092,1032.7108 107.2396,1032.4015 Q106.6699,1032.0923 106.1816,1031.7342 Q105.7096,1031.3761 105.4329,1030.8879 Q105.1725,1030.3833 105.1725,1029.6834 Q105.1725,1028.479 105.9701,1027.8931 Q106.7839,1027.3071 108.0859,1027.3071 Q108.6068,1027.3071 109.3392,1027.4373 Q110.0716,1027.5513 110.7715,1027.8768 L110.1855,1029.2928 Q109.5833,1029.0324 109.0788,1028.9185 Q108.5742,1028.8045 108.1836,1028.8045 Q107.5814,1028.8045 107.2884,1029.0649 Q107.0117,1029.3091 107.0117,1029.7648 Q107.0117,1030.1392 107.1908,1030.367 Q107.3698,1030.5786 107.7116,1030.7576 Q108.0697,1030.9367 108.6068,1031.2134 Q109.3392,1031.5877 109.86,1031.9295 Q110.3809,1032.2713 110.6576,1032.7271 Q110.9342,1033.1665 110.9342,1033.8664 Q110.9342,1034.729 110.5111,1035.3149 Q110.0879,1035.9009 109.3229,1036.1938 Q108.5579,1036.4868 107.5488,1036.4868 Z " fill="#FFFFFF"/><text fill="#343A40" font-family="&quot;Verdana&quot;" font-size="11.4583" lengthAdjust="spacing" textLength="56.25" x="131.7188" y="1040.8442">VanMises</text><line style="stroke:#0000FF;stroke-width:1.0416666666666667;stroke-dasharray:1.0,3.0;" x1="70.7813" x2="218.6979" y1="1053.9632" y2="1053.9632"/><ellipse cx="81.1979" cy="1071.5698" fill="none" rx="3.125" ry="3.125" style="stroke:#6CAF9C;stroke-width:1.0416666666666667;"/><text fill="#343A40" font-family="&quot;Verdana&quot;" font-size="11.4583" lengthAdjust="spacing" textLength="83.3333" x="94.7396" y="1073.9741">Array2 means</text><ellipse cx="81.1979" cy="1095.3247" fill="none" rx="3.125" ry="3.125" style="stroke:#6CAF9C;stroke-width:1.0416666666666667;"/><text fill="#343A40" font-family="&quot;Verdana&quot;" font-size="11.4583" lengthAdjust="spacing" textLength="113.5417" x="94.7396" y="1097.729">Array3 covariances</text></g><!--MD5=[4f21f72e6fe6ee8c51a2c7f6662c4887]
class NegativeBionmial--><g id="elem_NegativeBionmial"><rect codeLine="85" fill="#86C8B5" height="100.4313" id="NegativeBionmial" rx="4.1667" ry="4.1667" style="stroke:#0000FF;stroke-width:1.0416666666666667;stroke-dasharray:1.0,3.0;" width="167.7083" x="332.7604" y="1009.375"/><ellipse cx="358.125" cy="1031.6691" fill="#B0C4DE" rx="10.4167" ry="10.4167" style="stroke:#6CAF9C;stroke-width:1.0416666666666667;"/><path d="M357.9134,1036.4868 Q357.2461,1036.4868 356.5788,1036.3566 Q355.9277,1036.2264 355.3581,1035.9497 L355.3581,1034.2896 Q356.0579,1034.6476 356.709,1034.8267 Q357.36,1034.9894 357.9622,1034.9894 Q358.6133,1034.9894 359.0202,1034.7778 Q359.4434,1034.55 359.4434,1033.964 Q359.4434,1033.5734 359.2155,1033.3455 Q359.0039,1033.1177 358.5807,1032.9224 Q358.1738,1032.7108 357.6042,1032.4015 Q357.0345,1032.0923 356.5462,1031.7342 Q356.0742,1031.3761 355.7975,1030.8879 Q355.5371,1030.3833 355.5371,1029.6834 Q355.5371,1028.479 356.3346,1027.8931 Q357.1484,1027.3071 358.4505,1027.3071 Q358.9714,1027.3071 359.7038,1027.4373 Q360.4362,1027.5513 361.1361,1027.8768 L360.5501,1029.2928 Q359.9479,1029.0324 359.4434,1028.9185 Q358.9388,1028.8045 358.5482,1028.8045 Q357.946,1028.8045 357.653,1029.0649 Q357.3763,1029.3091 357.3763,1029.7648 Q357.3763,1030.1392 357.5553,1030.367 Q357.7344,1030.5786 358.0762,1030.7576 Q358.4342,1030.9367 358.9714,1031.2134 Q359.7038,1031.5877 360.2246,1031.9295 Q360.7454,1032.2713 361.0221,1032.7271 Q361.2988,1033.1665 361.2988,1033.8664 Q361.2988,1034.729 360.8757,1035.3149 Q360.4525,1035.9009 359.6875,1036.1938 Q358.9225,1036.4868 357.9134,1036.4868 Z " fill="#FFFFFF"/><text fill="#343A40" font-family="&quot;Verdana&quot;" font-size="11.4583" lengthAdjust="spacing" textLength="102.0833" x="379.2708" y="1040.8442">NegativeBionmial</text><line style="stroke:#0000FF;stroke-width:1.0416666666666667;stroke-dasharray:1.0,3.0;" x1="333.8021" x2="499.4271" y1="1053.9632" y2="1053.9632"/><ellipse cx="344.2188" cy="1071.5698" fill="none" rx="3.125" ry="3.125" style="stroke:#6CAF9C;stroke-width:1.0416666666666667;"/><text fill="#343A40" font-family="&quot;Verdana&quot;" font-size="11.4583" lengthAdjust="spacing" textLength="83.3333" x="357.7604" y="1073.9741">Array1 means</text><ellipse cx="344.2188" cy="1095.3247" fill="none" rx="3.125" ry="3.125" style="stroke:#6CAF9C;stroke-width:1.0416666666666667;"/><text fill="#343A40" font-family="&quot;Verdana&quot;" font-size="11.4583" lengthAdjust="spacing" textLength="131.25" x="357.7604" y="1097.729">Array1 overdispersion</text></g><!--MD5=[790f06696f0519299ee2b44c0c45bef6]
class Poisson--><g id="elem_Poisson"><rect codeLine="89" fill="#86C8B5" height="100.4313" id="Poisson" rx="4.1667" ry="4.1667" style="stroke:#0000FF;stroke-width:1.0416666666666667;stroke-dasharray:1.0,3.0;" width="167.7083" x="617.1354" y="1009.375"/><ellipse cx="668.1771" cy="1031.6691" fill="#B0C4DE" rx="10.4167" ry="10.4167" style="stroke:#6CAF9C;stroke-width:1.0416666666666667;"/><path d="M667.9655,1036.4868 Q667.2982,1036.4868 666.6309,1036.3566 Q665.9798,1036.2264 665.4102,1035.9497 L665.4102,1034.2896 Q666.11,1034.6476 666.7611,1034.8267 Q667.4121,1034.9894 668.0143,1034.9894 Q668.6654,1034.9894 669.0723,1034.7778 Q669.4954,1034.55 669.4954,1033.964 Q669.4954,1033.5734 669.2676,1033.3455 Q669.056,1033.1177 668.6328,1032.9224 Q668.2259,1032.7108 667.6563,1032.4015 Q667.0866,1032.0923 666.5983,1031.7342 Q666.1263,1031.3761 665.8496,1030.8879 Q665.5892,1030.3833 665.5892,1029.6834 Q665.5892,1028.479 666.3867,1027.8931 Q667.2005,1027.3071 668.5026,1027.3071 Q669.0234,1027.3071 669.7559,1027.4373 Q670.4883,1027.5513 671.1882,1027.8768 L670.6022,1029.2928 Q670,1029.0324 669.4954,1028.9185 Q668.9909,1028.8045 668.6003,1028.8045 Q667.998,1028.8045 667.7051,1029.0649 Q667.4284,1029.3091 667.4284,1029.7648 Q667.4284,1030.1392 667.6074,1030.367 Q667.7865,1030.5786 668.1283,1030.7576 Q668.4863,1030.9367 669.0234,1031.2134 Q669.7559,1031.5877 670.2767,1031.9295 Q670.7975,1032.2713 671.0742,1032.7271 Q671.3509,1033.1665 671.3509,1033.8664 Q671.3509,1034.729 670.9277,1035.3149 Q670.5046,1035.9009 669.7396,1036.1938 Q668.9746,1036.4868 667.9655,1036.4868 Z " fill="#FFFFFF"/><text fill="#343A40" font-family="&quot;Verdana&quot;" font-size="11.4583" lengthAdjust="spacing" textLength="46.875" x="693.1771" y="1040.8442">Poisson</text><line style="stroke:#0000FF;stroke-width:1.0416666666666667;stroke-dasharray:1.0,3.0;" x1="618.1771" x2="783.8021" y1="1053.9632" y2="1053.9632"/><ellipse cx="628.5938" cy="1071.5698" fill="none" rx="3.125" ry="3.125" style="stroke:#6CAF9C;stroke-width:1.0416666666666667;"/><text fill="#343A40" font-family="&quot;Verdana&quot;" font-size="11.4583" lengthAdjust="spacing" textLength="83.3333" x="642.1354" y="1073.9741">Array1 means</text><ellipse cx="628.5938" cy="1095.3247" fill="none" rx="3.125" ry="3.125" style="stroke:#6CAF9C;stroke-width:1.0416666666666667;"/><text fill="#343A40" font-family="&quot;Verdana&quot;" font-size="11.4583" lengthAdjust="spacing" textLength="131.25" x="642.1354" y="1097.729">Array1 overdispersion</text></g><!--MD5=[c7328c0fb66290047d642afa41e26da8]
class Finite--><g id="elem_Finite"><rect codeLine="93" fill="#86C8B5" height="76.6764" id="Finite" rx="4.1667" ry="4.1667" style="stroke:#78C2AD;stroke-width:1.0416666666666667;" width="102.0833" x="1689.5313" y="1020.8333"/><ellipse cx="1717.2396" cy="1043.1274" fill="#B0C4DE" rx="10.4167" ry="10.4167" style="stroke:#6CAF9C;stroke-width:1.0416666666666667;"/><path d="M1717.028,1047.9451 Q1716.3607,1047.9451 1715.6934,1047.8149 Q1715.0423,1047.6847 1714.4727,1047.408 L1714.4727,1045.7479 Q1715.1725,1046.106 1715.8236,1046.285 Q1716.4746,1046.4478 1717.0768,1046.4478 Q1717.7279,1046.4478 1718.1348,1046.2362 Q1718.5579,1046.0083 1718.5579,1045.4224 Q1718.5579,1045.0317 1718.3301,1044.8039 Q1718.1185,1044.576 1717.6953,1044.3807 Q1717.2884,1044.1691 1716.7188,1043.8599 Q1716.1491,1043.5506 1715.6608,1043.1925 Q1715.1888,1042.8345 1714.9121,1042.3462 Q1714.6517,1041.8416 1714.6517,1041.1418 Q1714.6517,1039.9373 1715.4492,1039.3514 Q1716.263,1038.7655 1717.5651,1038.7655 Q1718.0859,1038.7655 1718.8184,1038.8957 Q1719.5508,1039.0096 1720.2507,1039.3351 L1719.6647,1040.7511 Q1719.0625,1040.4907 1718.5579,1040.3768 Q1718.0534,1040.2629 1717.6628,1040.2629 Q1717.0605,1040.2629 1716.7676,1040.5233 Q1716.4909,1040.7674 1716.4909,1041.2231 Q1716.4909,1041.5975 1716.6699,1041.8254 Q1716.849,1042.0369 1717.1908,1042.216 Q1717.5488,1042.395 1718.0859,1042.6717 Q1718.8184,1043.0461 1719.3392,1043.3879 Q1719.86,1043.7297 1720.1367,1044.1854 Q1720.4134,1044.6248 1720.4134,1045.3247 Q1720.4134,1046.1873 1719.9902,1046.7733 Q1719.5671,1047.3592 1718.8021,1047.6522 Q1718.0371,1047.9451 1717.028,1047.9451 Z " fill="#FFFFFF"/><text fill="#343A40" font-family="&quot;Verdana&quot;" font-size="11.4583" lengthAdjust="spacing" textLength="31.25" x="1738.9063" y="1052.3026">Finite</text><line style="stroke:#78C2AD;stroke-width:1.0416666666666667;" x1="1690.5729" x2="1790.5729" y1="1065.4215" y2="1065.4215"/><ellipse cx="1700.9896" cy="1083.0282" fill="none" rx="3.125" ry="3.125" style="stroke:#6CAF9C;stroke-width:1.0416666666666667;"/><text fill="#343A40" font-family="&quot;Verdana&quot;" font-size="11.4583" lengthAdjust="spacing" textLength="65.625" x="1714.5313" y="1085.4324">Array1 PMF</text></g><!--MD5=[0dbcdcd0ef4d39fb7c0f1471a11aafe8]
class Dirichlet--><g id="elem_Dirichlet"><rect codeLine="97" fill="#86C8B5" height="76.6764" id="Dirichlet" rx="4.1667" ry="4.1667" style="stroke:#0000FF;stroke-width:1.0416666666666667;stroke-dasharray:1.0,3.0;" width="102.0833" x="1882.2396" y="1020.8333"/><ellipse cx="1902.4479" cy="1043.1274" fill="#B0C4DE" rx="10.4167" ry="10.4167" style="stroke:#6CAF9C;stroke-width:1.0416666666666667;"/><path d="M1902.2363,1047.9451 Q1901.569,1047.9451 1900.9017,1047.8149 Q1900.2507,1047.6847 1899.681,1047.408 L1899.681,1045.7479 Q1900.3809,1046.106 1901.0319,1046.285 Q1901.6829,1046.4478 1902.2852,1046.4478 Q1902.9362,1046.4478 1903.3431,1046.2362 Q1903.7663,1046.0083 1903.7663,1045.4224 Q1903.7663,1045.0317 1903.5384,1044.8039 Q1903.3268,1044.576 1902.9036,1044.3807 Q1902.4967,1044.1691 1901.9271,1043.8599 Q1901.3574,1043.5506 1900.8691,1043.1925 Q1900.3971,1042.8345 1900.1204,1042.3462 Q1899.86,1041.8416 1899.86,1041.1418 Q1899.86,1039.9373 1900.6576,1039.3514 Q1901.4714,1038.7655 1902.7734,1038.7655 Q1903.2943,1038.7655 1904.0267,1038.8957 Q1904.7591,1039.0096 1905.459,1039.3351 L1904.873,1040.7511 Q1904.2708,1040.4907 1903.7663,1040.3768 Q1903.2617,1040.2629 1902.8711,1040.2629 Q1902.2689,1040.2629 1901.9759,1040.5233 Q1901.6992,1040.7674 1901.6992,1041.2231 Q1901.6992,1041.5975 1901.8783,1041.8254 Q1902.0573,1042.0369 1902.3991,1042.216 Q1902.7572,1042.395 1903.2943,1042.6717 Q1904.0267,1043.0461 1904.5475,1043.3879 Q1905.0684,1043.7297 1905.3451,1044.1854 Q1905.6217,1044.6248 1905.6217,1045.3247 Q1905.6217,1046.1873 1905.1986,1046.7733 Q1904.7754,1047.3592 1904.0104,1047.6522 Q1903.2454,1047.9451 1902.2363,1047.9451 Z " fill="#FFFFFF"/><text fill="#343A40" font-family="&quot;Verdana&quot;" font-size="11.4583" lengthAdjust="spacing" textLength="47.9167" x="1922.4479" y="1052.3026">Dirichlet</text><line style="stroke:#0000FF;stroke-width:1.0416666666666667;stroke-dasharray:1.0,3.0;" x1="1883.2813" x2="1983.2813" y1="1065.4215" y2="1065.4215"/><ellipse cx="1893.6979" cy="1083.0282" fill="none" rx="3.125" ry="3.125" style="stroke:#6CAF9C;stroke-width:1.0416666666666667;"/><text fill="#343A40" font-family="&quot;Verdana&quot;" font-size="11.4583" lengthAdjust="spacing" textLength="65.625" x="1907.2396" y="1085.4324">Array1 PMF</text></g><!--MD5=[f524977b08ec5195d82f02c3c031b113]
class Infintie--><g id="elem_Infintie"><rect codeLine="100" fill="#86C8B5" height="76.6764" id="Infintie" rx="4.1667" ry="4.1667" style="stroke:#0000FF;stroke-width:1.0416666666666667;stroke-dasharray:1.0,3.0;" width="102.0833" x="2074.9479" y="1020.8333"/><ellipse cx="2098.9063" cy="1043.1274" fill="#B0C4DE" rx="10.4167" ry="10.4167" style="stroke:#6CAF9C;stroke-width:1.0416666666666667;"/><path d="M2098.6947,1047.9451 Q2098.0273,1047.9451 2097.36,1047.8149 Q2096.709,1047.6847 2096.1393,1047.408 L2096.1393,1045.7479 Q2096.8392,1046.106 2097.4902,1046.285 Q2098.1413,1046.4478 2098.7435,1046.4478 Q2099.3945,1046.4478 2099.8014,1046.2362 Q2100.2246,1046.0083 2100.2246,1045.4224 Q2100.2246,1045.0317 2099.9967,1044.8039 Q2099.7852,1044.576 2099.362,1044.3807 Q2098.9551,1044.1691 2098.3854,1043.8599 Q2097.8158,1043.5506 2097.3275,1043.1925 Q2096.8555,1042.8345 2096.5788,1042.3462 Q2096.3184,1041.8416 2096.3184,1041.1418 Q2096.3184,1039.9373 2097.1159,1039.3514 Q2097.9297,1038.7655 2099.2318,1038.7655 Q2099.7526,1038.7655 2100.485,1038.8957 Q2101.2174,1039.0096 2101.9173,1039.3351 L2101.3314,1040.7511 Q2100.7292,1040.4907 2100.2246,1040.3768 Q2099.7201,1040.2629 2099.3294,1040.2629 Q2098.7272,1040.2629 2098.4342,1040.5233 Q2098.1576,1040.7674 2098.1576,1041.2231 Q2098.1576,1041.5975 2098.3366,1041.8254 Q2098.5156,1042.0369 2098.8574,1042.216 Q2099.2155,1042.395 2099.7526,1042.6717 Q2100.485,1043.0461 2101.0059,1043.3879 Q2101.5267,1043.7297 2101.8034,1044.1854 Q2102.0801,1044.6248 2102.0801,1045.3247 Q2102.0801,1046.1873 2101.6569,1046.7733 Q2101.2337,1047.3592 2100.4688,1047.6522 Q2099.7038,1047.9451 2098.6947,1047.9451 Z " fill="#FFFFFF"/><text fill="#343A40" font-family="&quot;Verdana&quot;" font-size="11.4583" lengthAdjust="spacing" textLength="39.5833" x="2119.7396" y="1052.3026">Infintie</text><line style="stroke:#0000FF;stroke-width:1.0416666666666667;stroke-dasharray:1.0,3.0;" x1="2075.9896" x2="2175.9896" y1="1065.4215" y2="1065.4215"/><ellipse cx="2086.4063" cy="1083.0282" fill="none" rx="3.125" ry="3.125" style="stroke:#6CAF9C;stroke-width:1.0416666666666667;"/><text fill="#343A40" font-family="&quot;Verdana&quot;" font-size="11.4583" lengthAdjust="spacing" textLength="65.625" x="2099.9479" y="1085.4324">Array1 PMF</text></g><!--MD5=[d768ce15f52b3b57003f9b257c10ea45]
class Learning--><g id="elem_Learning"><rect codeLine="5" fill="#86C8B5" height="76.6764" id="Learning" rx="4.1667" ry="4.1667" style="stroke:#78C2AD;stroke-width:1.0416666666666667;" width="107.2917" x="728.5938" y="17.7083"/><ellipse cx="749.7396" cy="40.0024" fill="#D8BFD8" rx="10.4167" ry="10.4167" style="stroke:#6CAF9C;stroke-width:1.0416666666666667;"/><path d="M748.9258,45.2108 L748.9258,37.854 L746.4681,37.854 L746.4681,36.2915 L753.2227,36.2915 L753.2227,37.854 L750.7487,37.854 L750.7487,45.2108 L748.9258,45.2108 Z " fill="#FFFFFF"/><text fill="#343A40" font-family="&quot;Verdana&quot;" font-size="11.4583" font-style="italic" lengthAdjust="spacing" textLength="51.0417" x="769.9479" y="49.1776">Learning</text><line style="stroke:#78C2AD;stroke-width:1.0416666666666667;" x1="729.6354" x2="834.8438" y1="62.2965" y2="62.2965"/><ellipse cx="740.0521" cy="79.9032" fill="none" rx="3.125" ry="3.125" style="stroke:#6CAF9C;stroke-width:1.0416666666666667;"/><text fill="#343A40" font-family="&quot;Verdana&quot;" font-size="11.4583" font-style="italic" lengthAdjust="spacing" textLength="70.8333" x="753.5938" y="82.3074">get_lateral()</text></g><!--MD5=[6e355365b0bdd0cdd35496bb8e02f3eb]
class Parametrizable--><g id="elem_Parametrizable"><rect codeLine="32" fill="#86C8B5" height="76.6764" id="Parametrizable" rx="4.1667" ry="4.1667" style="stroke:#78C2AD;stroke-width:1.0416666666666667;" width="131.25" x="716.6146" y="411.4583"/><ellipse cx="731.1979" cy="433.7524" fill="#D8BFD8" rx="10.4167" ry="10.4167" style="stroke:#6CAF9C;stroke-width:1.0416666666666667;"/><path d="M730.3841,438.9608 L730.3841,431.604 L727.9264,431.604 L727.9264,430.0415 L734.681,430.0415 L734.681,431.604 L732.207,431.604 L732.207,438.9608 L730.3841,438.9608 Z " fill="#FFFFFF"/><text fill="#343A40" font-family="&quot;Verdana&quot;" font-size="11.4583" font-style="italic" lengthAdjust="spacing" textLength="89.5833" x="749.9479" y="442.9276">Parametrizable</text><line style="stroke:#78C2AD;stroke-width:1.0416666666666667;" x1="717.6563" x2="846.8229" y1="456.0465" y2="456.0465"/><ellipse cx="728.0729" cy="473.6532" fill="none" rx="3.125" ry="3.125" style="stroke:#6CAF9C;stroke-width:1.0416666666666667;"/><text fill="#343A40" font-family="&quot;Verdana&quot;" font-size="11.4583" font-style="italic" lengthAdjust="spacing" textLength="70.8333" x="741.6146" y="476.0574">get_lateral()</text></g><!--MD5=[eb1f677a80b5234a34123fad21e8fedd]
class KMeans--><g id="elem_KMeans"><rect codeLine="38" fill="#86C8B5" height="44.5882" id="KMeans" rx="4.1667" ry="4.1667" style="stroke:#0000FF;stroke-width:1.0416666666666667;stroke-dasharray:1.0,3.0;" width="87.5" x="254.1146" y="630.7292"/><ellipse cx="268.6979" cy="653.0233" fill="#B0C4DE" rx="10.4167" ry="10.4167" style="stroke:#6CAF9C;stroke-width:1.0416666666666667;"/><path d="M268.4863,657.841 Q267.819,657.841 267.1517,657.7108 Q266.5007,657.5806 265.931,657.3039 L265.931,655.6437 Q266.6309,656.0018 267.2819,656.1808 Q267.9329,656.3436 268.5352,656.3436 Q269.1862,656.3436 269.5931,656.132 Q270.0163,655.9041 270.0163,655.3182 Q270.0163,654.9276 269.7884,654.6997 Q269.5768,654.4718 269.1536,654.2765 Q268.7467,654.0649 268.1771,653.7557 Q267.6074,653.4465 267.1191,653.0884 Q266.6471,652.7303 266.3704,652.242 Q266.11,651.7375 266.11,651.0376 Q266.11,649.8332 266.9076,649.2472 Q267.7214,648.6613 269.0234,648.6613 Q269.5443,648.6613 270.2767,648.7915 Q271.0091,648.9054 271.709,649.231 L271.123,650.647 Q270.5208,650.3866 270.0163,650.2726 Q269.5117,650.1587 269.1211,650.1587 Q268.5189,650.1587 268.2259,650.4191 Q267.9492,650.6632 267.9492,651.119 Q267.9492,651.4933 268.1283,651.7212 Q268.3073,651.9328 268.6491,652.1118 Q269.0072,652.2909 269.5443,652.5675 Q270.2767,652.9419 270.7975,653.2837 Q271.3184,653.6255 271.5951,654.0812 Q271.8717,654.5207 271.8717,655.2205 Q271.8717,656.0832 271.4486,656.6691 Q271.0254,657.255 270.2604,657.548 Q269.4954,657.841 268.4863,657.841 Z " fill="#FFFFFF"/><text fill="#343A40" font-family="&quot;Verdana&quot;" font-size="11.4583" lengthAdjust="spacing" textLength="45.8333" x="287.4479" y="662.1984">KMeans</text></g><!--MD5=[943fd764e59afa54a77c1c9b1c8d344f]
class SOM--><g id="elem_SOM"><rect codeLine="39" fill="#86C8B5" height="44.5882" id="SOM" rx="4.1667" ry="4.1667" style="stroke:#0000FF;stroke-width:1.0416666666666667;stroke-dasharray:1.0,3.0;" width="68.75" x="422.8646" y="630.7292"/><ellipse cx="437.4479" cy="653.0233" fill="#B0C4DE" rx="10.4167" ry="10.4167" style="stroke:#6CAF9C;stroke-width:1.0416666666666667;"/><path d="M437.2363,657.841 Q436.569,657.841 435.9017,657.7108 Q435.2507,657.5806 434.681,657.3039 L434.681,655.6437 Q435.3809,656.0018 436.0319,656.1808 Q436.6829,656.3436 437.2852,656.3436 Q437.9362,656.3436 438.3431,656.132 Q438.7663,655.9041 438.7663,655.3182 Q438.7663,654.9276 438.5384,654.6997 Q438.3268,654.4718 437.9036,654.2765 Q437.4967,654.0649 436.9271,653.7557 Q436.3574,653.4465 435.8691,653.0884 Q435.3971,652.7303 435.1204,652.242 Q434.86,651.7375 434.86,651.0376 Q434.86,649.8332 435.6576,649.2472 Q436.4714,648.6613 437.7734,648.6613 Q438.2943,648.6613 439.0267,648.7915 Q439.7591,648.9054 440.459,649.231 L439.873,650.647 Q439.2708,650.3866 438.7663,650.2726 Q438.2617,650.1587 437.8711,650.1587 Q437.2689,650.1587 436.9759,650.4191 Q436.6992,650.6632 436.6992,651.119 Q436.6992,651.4933 436.8783,651.7212 Q437.0573,651.9328 437.3991,652.1118 Q437.7572,652.2909 438.2943,652.5675 Q439.0267,652.9419 439.5475,653.2837 Q440.0684,653.6255 440.3451,654.0812 Q440.6217,654.5207 440.6217,655.2205 Q440.6217,656.0832 440.1986,656.6691 Q439.7754,657.255 439.0104,657.548 Q438.2454,657.841 437.2363,657.841 Z " fill="#FFFFFF"/><text fill="#343A40" font-family="&quot;Verdana&quot;" font-size="11.4583" lengthAdjust="spacing" textLength="27.0833" x="456.1979" y="662.1984">SOM</text></g><!--MD5=[b2bbb30c583e4ef147ab63bd3df7edda]
class HMM--><g id="elem_HMM"><rect codeLine="40" fill="#86C8B5" height="44.5882" id="HMM" rx="4.1667" ry="4.1667" style="stroke:#0000FF;stroke-width:1.0416666666666667;stroke-dasharray:1.0,3.0;" width="68.75" x="569.7396" y="630.7292"/><ellipse cx="584.3229" cy="653.0233" fill="#B0C4DE" rx="10.4167" ry="10.4167" style="stroke:#6CAF9C;stroke-width:1.0416666666666667;"/><path d="M584.1113,657.841 Q583.444,657.841 582.7767,657.7108 Q582.1257,657.5806 581.556,657.3039 L581.556,655.6437 Q582.2559,656.0018 582.9069,656.1808 Q583.5579,656.3436 584.1602,656.3436 Q584.8112,656.3436 585.2181,656.132 Q585.6413,655.9041 585.6413,655.3182 Q585.6413,654.9276 585.4134,654.6997 Q585.2018,654.4718 584.7786,654.2765 Q584.3717,654.0649 583.8021,653.7557 Q583.2324,653.4465 582.7441,653.0884 Q582.2721,652.7303 581.9954,652.242 Q581.735,651.7375 581.735,651.0376 Q581.735,649.8332 582.5326,649.2472 Q583.3464,648.6613 584.6484,648.6613 Q585.1693,648.6613 585.9017,648.7915 Q586.6341,648.9054 587.334,649.231 L586.748,650.647 Q586.1458,650.3866 585.6413,650.2726 Q585.1367,650.1587 584.7461,650.1587 Q584.1439,650.1587 583.8509,650.4191 Q583.5742,650.6632 583.5742,651.119 Q583.5742,651.4933 583.7533,651.7212 Q583.9323,651.9328 584.2741,652.1118 Q584.6322,652.2909 585.1693,652.5675 Q585.9017,652.9419 586.4225,653.2837 Q586.9434,653.6255 587.2201,654.0812 Q587.4967,654.5207 587.4967,655.2205 Q587.4967,656.0832 587.0736,656.6691 Q586.6504,657.255 585.8854,657.548 Q585.1204,657.841 584.1113,657.841 Z " fill="#FFFFFF"/><text fill="#343A40" font-family="&quot;Verdana&quot;" font-size="11.4583" lengthAdjust="spacing" textLength="27.0833" x="603.0729" y="662.1984">HMM</text></g><!--MD5=[c81ca84d0cce2576320f3e099b35c97a]
class KalmanFilter--><g id="elem_KalmanFilter"><rect codeLine="41" fill="#86C8B5" height="44.5882" id="KalmanFilter" rx="4.1667" ry="4.1667" style="stroke:#0000FF;stroke-width:1.0416666666666667;stroke-dasharray:1.0,3.0;" width="114.5833" x="724.9479" y="630.7292"/><ellipse cx="739.5313" cy="653.0233" fill="#B0C4DE" rx="10.4167" ry="10.4167" style="stroke:#6CAF9C;stroke-width:1.0416666666666667;"/><path d="M739.3197,657.841 Q738.6523,657.841 737.985,657.7108 Q737.334,657.5806 736.7643,657.3039 L736.7643,655.6437 Q737.4642,656.0018 738.1152,656.1808 Q738.7663,656.3436 739.3685,656.3436 Q740.0195,656.3436 740.4264,656.132 Q740.8496,655.9041 740.8496,655.3182 Q740.8496,654.9276 740.6217,654.6997 Q740.4102,654.4718 739.987,654.2765 Q739.5801,654.0649 739.0104,653.7557 Q738.4408,653.4465 737.9525,653.0884 Q737.4805,652.7303 737.2038,652.242 Q736.9434,651.7375 736.9434,651.0376 Q736.9434,649.8332 737.7409,649.2472 Q738.5547,648.6613 739.8568,648.6613 Q740.3776,648.6613 741.11,648.7915 Q741.8424,648.9054 742.5423,649.231 L741.9564,650.647 Q741.3542,650.3866 740.8496,650.2726 Q740.3451,650.1587 739.9544,650.1587 Q739.3522,650.1587 739.0592,650.4191 Q738.7826,650.6632 738.7826,651.119 Q738.7826,651.4933 738.9616,651.7212 Q739.1406,651.9328 739.4824,652.1118 Q739.8405,652.2909 740.3776,652.5675 Q741.11,652.9419 741.6309,653.2837 Q742.1517,653.6255 742.4284,654.0812 Q742.7051,654.5207 742.7051,655.2205 Q742.7051,656.0832 742.2819,656.6691 Q741.8587,657.255 741.0938,657.548 Q740.3288,657.841 739.3197,657.841 Z " fill="#FFFFFF"/><text fill="#343A40" font-family="&quot;Verdana&quot;" font-size="11.4583" lengthAdjust="spacing" textLength="72.9167" x="758.2813" y="662.1984">KalmanFilter</text></g><!--MD5=[985502d4493ab1825509baa3de91036b]
reverse link Learning to Model--><g id="link_Learning_Model"><path d="M782.2396,115.9375 C782.2396,153.3438 782.2396,200.7188 782.2396,233.1667 " fill="none" id="Learning-backto-Model" style="stroke:#78C2AD;stroke-width:3.125;stroke-dasharray:7.0,7.0;"/><polygon fill="none" points="774.9479,115.8125,782.2396,94.9792,789.5313,115.8125,774.9479,115.8125" style="stroke:#78C2AD;stroke-width:3.125;"/></g><!--MD5=[0ff8bf84ae8ee946581db65f8276b397]
link Model to Intermediate--><g id="link_Model_Intermediate"><path codeLine="27" d="M894.9167,271.875 C936.6354,271.875 978.3542,271.875 1020.0625,271.875 " fill="none" id="Model-Intermediate" style="stroke:#78C2AD;stroke-width:3.125;stroke-dasharray:7.0,7.0;"/></g><!--MD5=[f2eb38f06129d83e1debe5403294aa04]
link ModelInfo to Model--><g id="link_ModelInfo_Model"><path codeLine="28" d="M556.3854,271.875 C594.0313,271.875 631.6667,271.875 669.3125,271.875 " fill="none" id="ModelInfo-Model" style="stroke:#78C2AD;stroke-width:3.125;stroke-dasharray:7.0,7.0;"/></g><!--MD5=[093e256616cacf501b5fb63a56864228]
reverse link Model to Parametrizable--><g id="link_Model_Parametrizable"><path codeLine="35" d="M782.2396,324.5938 C782.2396,352.3542 782.2396,385.9792 782.2396,411.2604 " fill="none" id="Model-backto-Parametrizable" style="stroke:#78C2AD;stroke-width:3.125;"/><polygon fill="#78C2AD" points="782.2396,310.6771,778.0729,316.9271,782.2396,323.1771,786.4063,316.9271,782.2396,310.6771" style="stroke:#78C2AD;stroke-width:3.125;"/></g><!--MD5=[9af083ce104c3822607f0a67771089a4]
reverse link Parametrizable to KMeans--><g id="link_Parametrizable_KMeans"><path d="M695.3542,453.25 C615.0729,458.7708 495.0104,476.1042 405.1563,528.6458 C362.2604,553.7292 327.875,602.1979 310.4063,630.3646 " fill="none" id="Parametrizable-backto-KMeans" style="stroke:#78C2AD;stroke-width:3.125;stroke-dasharray:7.0,7.0;"/><polygon fill="none" points="695.1458,445.9583,716.375,452.0104,696.0104,460.5208,695.1458,445.9583" style="stroke:#78C2AD;stroke-width:3.125;"/></g><!--MD5=[657b2c1d7f2355b1725dd7a0f27ddab3]
reverse link Parametrizable to SOM--><g id="link_Parametrizable_SOM"><path d="M696.1667,467.2813 C650.3125,478.9375 594.7292,498.125 552.0313,528.6458 C513.7813,555.9792 483.7396,603.1875 468.4167,630.6146 " fill="none" id="Parametrizable-backto-SOM" style="stroke:#78C2AD;stroke-width:3.125;stroke-dasharray:7.0,7.0;"/><polygon fill="none" points="694.5104,460.1771,716.4688,462.4375,697.8958,474.3646,694.5104,460.1771" style="stroke:#78C2AD;stroke-width:3.125;"/></g><!--MD5=[c00ca7b50ede4a110a73255cc42b3592]
reverse link Parametrizable to HMM--><g id="link_Parametrizable_HMM"><path d="M730.0417,504.0417 C722.3021,512.1875 714.4896,520.5833 707.2396,528.6458 C675.875,563.5417 641.2708,605.7917 621.1771,630.7188 " fill="none" id="Parametrizable-backto-HMM" style="stroke:#78C2AD;stroke-width:3.125;stroke-dasharray:7.0,7.0;"/><polygon fill="none" points="724.9896,498.7813,744.6771,488.8125,735.5,508.8854,724.9896,498.7813" style="stroke:#78C2AD;stroke-width:3.125;"/></g><!--MD5=[66e8416c8271f5eb6d5758eba85000b9]
reverse link Parametrizable to KalmanFilter--><g id="link_Parametrizable_KalmanFilter"><path d="M782.2396,509.75 C782.2396,550.3229 782.2396,601.9479 782.2396,630.5417 " fill="none" id="Parametrizable-backto-KalmanFilter" style="stroke:#78C2AD;stroke-width:3.125;stroke-dasharray:7.0,7.0;"/><polygon fill="none" points="774.9479,509.6875,782.2396,488.8542,789.5313,509.6875,774.9479,509.6875" style="stroke:#78C2AD;stroke-width:3.125;"/></g><!--MD5=[0f765777204c5642780cd175618ef3ae]
reverse link Parametrizable to Mixture--><g id="link_Parametrizable_Mixture"><path d="M847.9896,501.3958 C894.4063,536.9479 955.5208,583.75 997.2396,615.7083 " fill="none" id="Parametrizable-backto-Mixture" style="stroke:#78C2AD;stroke-width:3.125;stroke-dasharray:7.0,7.0;"/><polygon fill="none" points="843.4167,507.0729,831.3021,488.625,852.2813,495.5,843.4167,507.0729" style="stroke:#78C2AD;stroke-width:3.125;"/></g><!--MD5=[1fbe2ae8f3c9b4f8c975a2658ec2d7f4]
reverse link Mixture to Mixable--><g id="link_Mixture_Mixable"><path codeLine="59" d="M1073.9271,727.4063 C1082.4479,743.3854 1092.8438,759.3854 1105.1563,772.3958 C1116.25,784.125 1129.4375,794.6771 1143.1875,804 " fill="none" id="Mixture-backto-Mixable" style="stroke:#78C2AD;stroke-width:3.125;"/><polygon fill="#78C2AD" points="1067.7813,715.2396,1066.8789,722.6968,1073.4154,726.3979,1074.3177,718.9407,1067.7813,715.2396" style="stroke:#78C2AD;stroke-width:3.125;"/><text fill="#FFFFFF" font-family="&quot;Verdana&quot;" font-size="12.5" lengthAdjust="spacing" textLength="75" x="1111.4063" y="764.2069">implements</text></g><!--MD5=[4fa07c2163748086421b14376e5cfb6e]
reverse link Mixture to Latent--><g id="link_Mixture_Latent"><path codeLine="60" d="M1104.9167,679.7917 C1132.4167,691.1563 1165.5313,704.3542 1195.7813,715.1042 C1300.5938,752.3646 1421.2083,789.2708 1510.6875,815.5313 " fill="none" id="Mixture-backto-Latent" style="stroke:#78C2AD;stroke-width:3.125;"/><polygon fill="#78C2AD" points="1092.3021,674.5521,1096.4751,680.7979,1103.8454,679.3481,1099.6724,673.1023,1092.3021,674.5521" style="stroke:#78C2AD;stroke-width:3.125;"/></g><!--MD5=[d6c67ee7b38afa55df4414bd14a2ca98]
reverse link Mixture to Predicting--><g id="link_Mixture_Predicting"><path codeLine="61" d="M1019.8646,728.3854 C1006.5938,768.0104 991.4063,813.3438 983.5,836.9375 " fill="none" id="Mixture-backto-Predicting" style="stroke:#78C2AD;stroke-width:3.125;"/><polygon fill="#78C2AD" points="1024.2813,715.2083,1018.3456,719.8117,1020.3119,727.0614,1026.2476,722.458,1024.2813,715.2083" style="stroke:#78C2AD;stroke-width:3.125;"/></g><!--MD5=[e7b464bc0adbc1b42255227ab9aab9b4]
reverse link Parametrizable to Latent--><g id="link_Parametrizable_Latent"><path codeLine="62" d="M869.0938,455.0938 C1009.75,462.9063 1280.0313,483.4271 1363.4896,528.6458 C1489.1042,596.7083 1583.4896,745.5417 1622.7083,815.4375 " fill="none" id="Parametrizable-backto-Latent" style="stroke:#78C2AD;stroke-width:3.125;"/><polygon fill="none" points="868.5104,462.3646,848.0938,453.9688,869.2917,447.8021,868.5104,462.3646" style="stroke:#78C2AD;stroke-width:3.125;"/><text fill="#FFFFFF" font-family="&quot;Verdana&quot;" font-size="12.5" lengthAdjust="spacing" textLength="125" x="1563.4896" y="657.9569">extends / overrides</text></g><!--MD5=[73b5b7d42c3a15ff1037a6aaadf6b0be]
reverse link Parametrizable to Mixable--><g id="link_Parametrizable_Mixable"><path codeLine="63" d="M868.5521,462.4375 C953.0938,475.1458 1074.3333,498.0313 1110.3646,528.6458 C1194.2604,599.9271 1226.1563,732.3021 1237.6563,803.9792 " fill="none" id="Parametrizable-backto-Mixable" style="stroke:#78C2AD;stroke-width:3.125;"/><polygon fill="none" points="867.4792,469.6458,847.9167,459.4167,869.5833,455.2188,867.4792,469.6458" style="stroke:#78C2AD;stroke-width:3.125;"/><text fill="#FFFFFF" font-family="&quot;Verdana&quot;" font-size="12.5" lengthAdjust="spacing" textLength="125" x="1223.9063" y="657.9569">extends / overrides</text></g><!--MD5=[081e3c7cd52a47b7b3ab8a66f1cd4ac2]
reverse link Mixable to Gaussian--><g id="link_Mixable_Gaussian"><path d="M1161.7396,916.9167 C1122.4167,946.5208 1075.9583,981.5 1039.0833,1009.2604 " fill="none" id="Mixable-backto-Gaussian" style="stroke:#78C2AD;stroke-width:3.125;stroke-dasharray:7.0,7.0;"/><polygon fill="none" points="1157.3646,911.0833,1178.3854,904.375,1166.1354,922.7396,1157.3646,911.0833" style="stroke:#78C2AD;stroke-width:3.125;"/></g><!--MD5=[27f9d4e9c5c6934f28e0e8a59b9e22b8]
reverse link Mixable to GaussianRegression--><g id="link_Mixable_GaussianRegression"><path d="M1243.6979,925.5938 C1243.6979,953.1875 1243.6979,984.1771 1243.6979,1009.2604 " fill="none" id="Mixable-backto-GaussianRegression" style="stroke:#78C2AD;stroke-width:3.125;stroke-dasharray:7.0,7.0;"/><polygon fill="none" points="1236.4063,925.2083,1243.6979,904.375,1250.9896,925.2083,1236.4063,925.2083" style="stroke:#78C2AD;stroke-width:3.125;"/></g><!--MD5=[6205066d5a28dd6d1ee35df2d46e4cce]
reverse link Mixable to Structured--><g id="link_Mixable_Structured"><path d="M1325.6563,916.9167 C1364.9792,946.5208 1411.4375,981.5 1448.3125,1009.2604 " fill="none" id="Mixable-backto-Structured" style="stroke:#78C2AD;stroke-width:3.125;stroke-dasharray:7.0,7.0;"/><polygon fill="none" points="1321.2604,922.7396,1309.0104,904.375,1330.0417,911.0833,1321.2604,922.7396" style="stroke:#78C2AD;stroke-width:3.125;"/></g><!--MD5=[bd7f0a71270a62c8cd5a062f47e8290a]
reverse link Mixable to VanMises--><g id="link_Mixable_VanMises"><path d="M1120.125,908.8854 C1096.2188,917.1771 1071.0521,924.5208 1046.8229,929.1667 C966.8854,944.4792 392.1458,922.375 314.5313,946.875 C273.5104,959.8229 233.0208,985.7396 201.875,1009.3333 " fill="none" id="Mixable-backto-VanMises" style="stroke:#78C2AD;stroke-width:3.125;stroke-dasharray:7.0,7.0;"/><polygon fill="none" points="1117.7917,901.9688,1139.8646,901.7292,1122.7604,915.6875,1117.7917,901.9688" style="stroke:#78C2AD;stroke-width:3.125;"/></g><!--MD5=[8c9ac914736e87d282e6352a21be8a00]
reverse link Mixable to NegativeBionmial--><g id="link_Mixable_NegativeBionmial"><path d="M1120.0417,908.4792 C1096.1458,916.8125 1071.0104,924.2813 1046.8229,929.1667 C949.1875,948.9063 694.2396,917.9896 598.9063,946.875 C555.7708,959.9375 512.5208,985.7083 478.9792,1009.1875 " fill="none" id="Mixable-backto-NegativeBionmial" style="stroke:#78C2AD;stroke-width:3.125;stroke-dasharray:7.0,7.0;"/><polygon fill="none" points="1117.7083,901.5729,1139.7813,901.3125,1122.6875,915.2813,1117.7083,901.5729" style="stroke:#78C2AD;stroke-width:3.125;"/></g><!--MD5=[2d1d328b7f795e4c6453b93972e3a23f]
reverse link Mixable to Poisson--><g id="link_Mixable_Poisson"><path d="M1120.1667,907.0208 C1096.1771,915.5417 1070.9688,923.4375 1046.8229,929.1667 C974.7917,946.2604 951.2292,922.875 881.1979,946.875 C839.6146,961.125 797.5833,986.3646 764.5833,1009.2188 " fill="none" id="Mixable-backto-Poisson" style="stroke:#78C2AD;stroke-width:3.125;stroke-dasharray:7.0,7.0;"/><polygon fill="none" points="1117.9167,900.0833,1139.9896,899.7604,1122.9375,913.7708,1117.9167,900.0833" style="stroke:#78C2AD;stroke-width:3.125;"/></g><!--MD5=[4c4e9e992a7aa4158c77eb1b371b4748]
reverse link Latent to Finite--><g id="link_Latent_Finite"><path d="M1669.9063,911.7396 C1686.6875,946.5521 1707.7396,990.2188 1722.4792,1020.8021 " fill="none" id="Latent-backto-Finite" style="stroke:#78C2AD;stroke-width:3.125;stroke-dasharray:7.0,7.0;"/><polygon fill="none" points="1663.3229,914.875,1660.8438,892.9375,1676.4583,908.5417,1663.3229,914.875" style="stroke:#78C2AD;stroke-width:3.125;"/></g><!--MD5=[709f97cc300584f300602e8604a0baa4]
reverse link Latent to Dirichlet--><g id="link_Latent_Dirichlet"><path d="M1738.9792,902.7917 C1762.9792,916 1788.1771,931.0833 1810.3646,946.875 C1841.3438,968.9167 1873.0625,997.8646 1896.5104,1020.7292 " fill="none" id="Latent-backto-Dirichlet" style="stroke:#78C2AD;stroke-width:3.125;stroke-dasharray:7.0,7.0;"/><polygon fill="none" points="1735.3958,909.1354,1720.5,892.8438,1742.3021,896.3021,1735.3958,909.1354" style="stroke:#78C2AD;stroke-width:3.125;"/></g><!--MD5=[e3f37c4b861ece348302996a603d35e7]
reverse link Latent to Infintie--><g id="link_Latent_Infintie"><path d="M1809.1771,879.9167 C1872.4271,893.75 1943.5313,914.9063 2003.0729,946.875 C2037.8438,965.5417 2070.6042,996.1563 2093.5417,1020.5729 " fill="none" id="Latent-backto-Infintie" style="stroke:#78C2AD;stroke-width:3.125;stroke-dasharray:7.0,7.0;"/><polygon fill="none" points="1807.3854,886.9896,1788.4896,875.5938,1810.375,872.7188,1807.3854,886.9896" style="stroke:#78C2AD;stroke-width:3.125;"/></g><!--MD5=[284d1dec9e8a5d206c2c7673ad81d9b1]
@startuml potpourri
!theme minty
!pragma ratio 0.5


    interface Learning << (T,Thistle) >>  {
        +{abstract} get_lateral()
    }

    package model.rs #FFFFFF{

        class Model <<  (S,LightSteelBlue) >> implements Learning {
            + Parametrizable parameterizable
        }


        class ModelInfo <<  (S,LightSteelBlue) >> {}



        class Intermediate <<  (S,LightSteelBlue) >> {
        + sufficient_statistics
        + bool converged
        + usize n_iterations
        + AvgLLH: likelihood,
    }
    }
    Model .right. Intermediate
    Model .left. ModelInfo



    interface Parametrizable << (T,Thistle) >>  {
        +{abstract} get_lateral()
    }
    Model *- - Parametrizable


    class KMeans  <<  (S,LightSteelBlue)  >> #line.dotted:blue implements Parametrizable
    class SOM <<  (S,LightSteelBlue)  >>  #line.dotted:blue implements Parametrizable
    class HMM <<  (S,LightSteelBlue)  >> #line.dotted:blue  implements Parametrizable
    class KalmanFilter <<  (S,LightSteelBlue)  >> #line.dotted:blue  implements Parametrizable


    package mixture.rs #FFFFFF{

        interface Mixable << (T,Thistle) >>  {
            +{abstract} precit(weights, data)
            +{abstract} expect(data) ➙ LogLikelihood
        }
        class Mixture <<  (S,LightSteelBlue) >> implements Parametrizable {
            + latent
            + mixable
            + predicting
        }

        interface Latent << (T,Thistle) >>  {
            +{abstract} expect(log_likelihood) ➙ Likelihood, AvgLLH
        }
        Mixture *- - Mixable : implements
        Mixture *- - Latent
        Mixture *- - Predicting
        Parametrizable <|- - Latent : extends / overrides
        Parametrizable <|- - Mixable : extends / overrides
    }



    package "backends.[ndarray|ractor|rust|trch-rs|polars].*.rs" #FFFFFF {
        class Gaussian <<  (S,LightSteelBlue) >> implements Mixable {
            + Array2 means
            + Array3 covariances
        }
        class GaussianRegression <<  (S,LightSteelBlue) >>#line.dotted:blue implements Mixable {
            + Array2 means
            + Array3 covariances
        }
        class Structured <<  (S,LightSteelBlue) >>#line.dotted:blue implements Mixable {
            + Array2 means
            + Array3 covariances
        }
        class VanMises <<  (S,LightSteelBlue) >>#line.dotted:blue implements Mixable {
            + Array2 means
            + Array3 covariances
        }
        class NegativeBionmial <<  (S,LightSteelBlue) >> #line.dotted:blue implements Mixable {
            + Array1 means
            + Array1 overdispersion
        }
        class Poisson <<  (S,LightSteelBlue) >> #line.dotted:blue implements Mixable {
            + Array1 means
            + Array1 overdispersion
        }
        class Finite <<  (S,LightSteelBlue) >> implements Latent {
            + Array1 PMF
        }

        class Dirichlet <<  (S,LightSteelBlue) >> #line.dotted:blue  implements Latent {
            + Array1 PMF
        }
        class Infintie <<  (S,LightSteelBlue) >> #line.dotted:blue  implements Latent {
            + Array1 PMF
        }
    }
    hide empty members
@enduml

@startuml potpourri



skinparam backgroundColor transparent
skinparam useBetaStyle false






<style>
  root {
    BackgroundColor transparent
    FontColor #fff
    HyperLinkColor #fd7e14
    LineColor #6caf9c
    LineThickness 1
    Margin 10
    Padding 6
    Shadowing 0.0
  }
  node {
   Padding 15
   roundcorner 20
   BackgroundColor #78c2ad-#6caf9c
  }
  caption {
    LineThickness 0
  }
  footer {
    LineThickness 0
  }
  groupHeader {
    BackgroundColor #f3969a
    FontColor #6cc3d5
    FontStyle bold
  }
  header {
    LineThickness 0
  }
  referenceHeader {
    BackgroundColor transparent
    FontColor #343a40
    FontStyle bold
  }
  separator {
    BackgroundColor #fff
    FontColor transparent
    FontStyle bold
  }
  title {
	FontSize 20
	BorderRoundCorner            8
	BorderThickness 	         1
	BackgroundColor  #f4a1a4-#f3969a
	FontColor #78c2ad
	BorderColor #f3969a
  }
  nwdiagDiagram {
	network {
			FontColor #fff
	BorderColor #78c2ad
	BackgroundColor #86c8b5    
		LineColor #78c2ad
		LineThickness 1.0
		FontColor #6caf9c
	}
	server {
			FontColor #fff
	BorderColor #78c2ad
	BackgroundColor #86c8b5
	}
	arrow {
		FontColor #6caf9c
		LineColor #6caf9c
	}
	group {
		BackGroundColor #f8f9fa
		LineColor #dfe0e1
		LineThickness 2.0
		Margin 5
		Padding 5
	}
  }
  ganttDiagram {
	task {
			FontColor #fff
	BorderColor #78c2ad
	BackgroundColor #86c8b5
		LineColor #78c2ad
		Margin 10
		Padding 6
	}
	note {
		FontColor #fff
		LineColor #61b0c0
		BackGroundColor #6cc3d5
	}
	separator {
		LineColor #f3969a
		BackGroundColor #f3969a-#db878b
		FontColor #fff
	}
	milestone {
		FontColor #6cc3d5
		FontSize 16
		FontStyle italic
		BackGroundColor #f3969a
		LineColor #db878b
	}
	timeline {
		BackgroundColor #f3969a
		FontColor #fff
	}
	closed {
		BackgroundColor #e6b95d
		FontColor #fff
	}
  }
</style>
skinparam defaultFontName       "Verdana"
skinparam defaultFontSize       12
skinparam dpi                   100
skinparam shadowing             false
skinparam roundcorner           8
skinparam ParticipantPadding    40
skinparam BoxPadding            40
skinparam Padding               5
skinparam ArrowColor            #343a40
skinparam stereotype {
    CBackgroundColor #f4a1a4
    CBorderColor #db878b
    ABackgroundColor #67d1a7
    ABorderColor #4db88d
    IBackgroundColor #ff8662
    IBorderColor #e66c49
    EBackgroundColor #ffd376
    EBorderColor #e6b95d
    NBackgroundColor #7bc9d9
    NBorderColor #61b0c0
}
skinparam title {
	FontColor	                 #6caf9c
	BorderColor	                 #db878b
	FontSize	    	         20
	BorderRoundCorner            8
	BorderThickness 	         1
	BackgroundColor              #f4a1a4-#f3969a
}

skinparam legend {
	BackgroundColor #f3969a
	BorderColor #db878b
	FontColor #f8f9fa
}

skinparam swimlane {
	BorderColor #6cc3d5
	BorderThickness 2
	TitleBackgroundColor  #f4a1a4-#f3969a
	TitleFontColor #78c2ad
}


skinparam activity {
		FontColor #fff
	BorderColor #78c2ad
	BackgroundColor #86c8b5
	BarColor #56cc9d
	StartColor #6cc3d5
	EndColor #6cc3d5
	DiamondBackgroundColor #f4a1a4
  	DiamondBorderColor #db878b
  	DiamondFontColor #fff
}


skinparam participant {
		FontColor #fff
	BorderColor #78c2ad
	BackgroundColor #86c8b5
	ParticipantBorderThickness 2
}


skinparam actor {
		FontColor #fff
	BorderColor #78c2ad
	BackgroundColor #86c8b5
}


skinparam arrow {
	Thickness 3
	Color #78c2ad
	FontColor #fff
}


skinparam sequence {
	BorderColor #78c2ad
	TitleFontColor #78c2ad
	BackgroundColor transparent
	StartColor #78c2ad
	EndColor #78c2ad
	BoxBackgroundColor transparent
	BoxBorderColor #343a40
	BoxFontColor #343a40
	DelayFontColor #343a40
	LifeLineBorderColor #f3969a
	LifeLineBorderThickness 2
	LifeLineBackgroundColor #db878b
	GroupBorderColor #343a40
	GroupFontColor #343a40
	GroupHeaderFontColor #6cc3d5
	GroupBackgroundColor #f3969a
	GroupHeaderBackgroundColor transparent
	DividerBackgroundColor #343a40
    DividerBorderColor #343a40
    DividerBorderThickness 2
    DividerFontColor #f8f9fa
	ReferenceBackgroundColor transparent
	ReferenceBorderColor #343a40
	ReferenceFontColor #343a40
	ReferenceHeaderFontColor #6cc3d5
	ReferenceHeaderBackgroundColor #f3969a
	StereotypeFontColor #fff
}


skinparam partition {
	BorderColor #78c2ad
	FontColor #78c2ad
	BackgroundColor transparent
}


skinparam collections {
		FontColor #fff
	BorderColor #78c2ad
	BackgroundColor #86c8b5
}


skinparam control {
		FontColor #fff
	BorderColor #78c2ad
	BackgroundColor #86c8b5
}


skinparam entity {
		FontColor #fff
	BorderColor #78c2ad
	BackgroundColor #86c8b5
}


skinparam boundary {
		FontColor #fff
	BorderColor #78c2ad
	BackgroundColor #86c8b5
}


skinparam agent {
	BackgroundColor #ffce67
	BorderColor #ffd376
	FontColor #343a40
}


skinparam note {
	BorderThickness 1
	BackgroundColor #6cc3d5
	BorderColor #61b0c0
	FontColor #fff
}


skinparam artifact {
	BackgroundColor #343a40
	BorderColor #2f343a
	FontColor #f8f9fa
}


skinparam component {
		FontColor #fff
	BorderColor #78c2ad
	BackgroundColor #86c8b5
}


skinparam interface {
	BackgroundColor  #e66c49
	BorderColor  #ff7851
	FontColor #343a40
}


skinparam storage {
	BackgroundColor #ffce67
  	BorderColor #e6b95d
	FontColor #fff
}


skinparam node {
	BackgroundColor  #f3969a
	BorderColor #f8f9fa
	FontColor #f8f9fa
}


skinparam cloud {
	BackgroundColor #F2FCFE-#eeeeee
	BorderColor #F2FCFE
	FontColor #343a40
}


skinparam database {
		FontColor #fff
	BorderColor #78c2ad
	BackgroundColor #86c8b5
}


skinparam class {
		FontColor #fff
	BorderColor #78c2ad
	BackgroundColor #86c8b5
	HeaderBackgroundColor #86c8b5
	StereotypeFontColor #343a40
	BorderThickness 1
	AttributeFontColor #343a40
	AttributeFontSize 11
}


skinparam object {
		FontColor #fff
	BorderColor #78c2ad
	BackgroundColor #86c8b5
	StereotypeFontColor #343a40
	BorderThickness 1
	AttributeFontColor #fff
	AttributeFontSize 11
}


skinparam usecase {
		FontColor #fff
	BorderColor #78c2ad
	BackgroundColor #86c8b5
	BorderThickness 2
	StereotypeFontColor #78c2ad
}


skinparam rectangle {
		FontColor #fff
	BorderColor #78c2ad
	BackgroundColor #86c8b5
	BackgroundColor #f4a1a4
	BorderThickness 2
	StereotypeFontColor #78c2ad
}


skinparam package {
	BackgroundColor #f3969a
  	BorderColor #78c2ad
	FontColor #78c2ad
	BorderThickness 2
}


skinparam folder {
	BackgroundColor #f4a1a4
  	BorderColor #ffce67
	FontColor #ffce67
	BorderThickness 2
}


skinparam frame {
	BackgroundColor #f4a1a4
  	BorderColor #6cc3d5
	FontColor #6cc3d5
	BorderThickness 2
}


skinparam state {
		FontColor #fff
	BorderColor #78c2ad
	BackgroundColor #86c8b5
	StartColor #6cc3d5
	EndColor #6cc3d5
	AttributeFontColor #fff
	AttributeFontSize 11
}


skinparam queue {
		FontColor #fff
	BorderColor #78c2ad
	BackgroundColor #86c8b5
}


skinparam card {
	BackgroundColor #6cc3d5
	BorderColor #61b0c0
	FontColor #fff
}


skinparam file {
	BackgroundColor #db878b
	BorderColor #f8f9fa
	FontColor #f8f9fa
}


skinparam stack {
		FontColor #fff
	BorderColor #78c2ad
	BackgroundColor #86c8b5
}
!pragma ratio 0.5


    interface Learning << (T,Thistle) >>  {
        +{abstract} get_lateral()
    }

    package model.rs #FFFFFF{

        class Model <<  (S,LightSteelBlue) >> implements Learning {
            + Parametrizable parameterizable
        }


        class ModelInfo <<  (S,LightSteelBlue) >> {}



        class Intermediate <<  (S,LightSteelBlue) >> {
        + sufficient_statistics
        + bool converged
        + usize n_iterations
        + AvgLLH: likelihood,
    }
    }
    Model .right. Intermediate
    Model .left. ModelInfo



    interface Parametrizable << (T,Thistle) >>  {
        +{abstract} get_lateral()
    }
    Model *- - Parametrizable


    class KMeans  <<  (S,LightSteelBlue)  >> #line.dotted:blue implements Parametrizable
    class SOM <<  (S,LightSteelBlue)  >>  #line.dotted:blue implements Parametrizable
    class HMM <<  (S,LightSteelBlue)  >> #line.dotted:blue  implements Parametrizable
    class KalmanFilter <<  (S,LightSteelBlue)  >> #line.dotted:blue  implements Parametrizable


    package mixture.rs #FFFFFF{

        interface Mixable << (T,Thistle) >>  {
            +{abstract} precit(weights, data)
            +{abstract} expect(data) ➙ LogLikelihood
        }
        class Mixture <<  (S,LightSteelBlue) >> implements Parametrizable {
            + latent
            + mixable
            + predicting
        }

        interface Latent << (T,Thistle) >>  {
            +{abstract} expect(log_likelihood) ➙ Likelihood, AvgLLH
        }
        Mixture *- - Mixable : implements
        Mixture *- - Latent
        Mixture *- - Predicting
        Parametrizable <|- - Latent : extends / overrides
        Parametrizable <|- - Mixable : extends / overrides
    }



    package "backends.[ndarray|ractor|rust|trch-rs|polars].*.rs" #FFFFFF {
        class Gaussian <<  (S,LightSteelBlue) >> implements Mixable {
            + Array2 means
            + Array3 covariances
        }
        class GaussianRegression <<  (S,LightSteelBlue) >>#line.dotted:blue implements Mixable {
            + Array2 means
            + Array3 covariances
        }
        class Structured <<  (S,LightSteelBlue) >>#line.dotted:blue implements Mixable {
            + Array2 means
            + Array3 covariances
        }
        class VanMises <<  (S,LightSteelBlue) >>#line.dotted:blue implements Mixable {
            + Array2 means
            + Array3 covariances
        }
        class NegativeBionmial <<  (S,LightSteelBlue) >> #line.dotted:blue implements Mixable {
            + Array1 means
            + Array1 overdispersion
        }
        class Poisson <<  (S,LightSteelBlue) >> #line.dotted:blue implements Mixable {
            + Array1 means
            + Array1 overdispersion
        }
        class Finite <<  (S,LightSteelBlue) >> implements Latent {
            + Array1 PMF
        }

        class Dirichlet <<  (S,LightSteelBlue) >> #line.dotted:blue  implements Latent {
            + Array1 PMF
        }
        class Infintie <<  (S,LightSteelBlue) >> #line.dotted:blue  implements Latent {
            + Array1 PMF
        }
    }
    hide empty members
@enduml

PlantUML version 1.2022.7(Mon Aug 22 19:01:30 CEST 2022)
(GPL source distribution)
Java Runtime: OpenJDK Runtime Environment
JVM: OpenJDK 64-Bit Server VM
Default Encoding: UTF-8
Language: en
Country: US
--></g></svg>